<?xml version="1.0" encoding="utf-8"?>
<!-- Generator: Adobe Illustrator 25.2.0, SVG Export Plug-In . SVG Version: 6.00 Build 0)  -->
<svg version="1.1" id="Ebene_1" xmlns="http://www.w3.org/2000/svg" xmlns:xlink="http://www.w3.org/1999/xlink" x="0px" y="0px"
	 viewBox="0 0 293.4 47.7" style="enable-background:new 0 0 293.4 47.7;" xml:space="preserve">
<style type="text/css">
	.st0{fill:#FFFFFF;}
	.st1{fill:#E30613;}
	.st2{fill:#1C1C1B;}
</style>
<rect x="0" class="st0" width="47.7" height="47.7"/>
<path class="st1" d="M7.3,47h33.2L23.8,30.4L7.3,47z M0.7,40.5l16.6-16.6L0.7,7.3V40.5z M30.4,23.9L47,40.5V7.3L30.4,23.9z M7.3,0.7
	l16.6,16.6L40.4,0.7H7.3z"/>
<polygon class="st2" points="65.9,26.4 67.1,26.4 67.1,32.1 67.2,32.1 73.3,26.4 75,26.4 68.5,32.3 75.3,39.2 73.6,39.2 67.2,32.6 
	67.1,32.6 67.1,39.2 65.9,39.2 "/>
<polygon class="st2" points="77.1,26.4 78.2,26.4 78.2,38.1 84.2,38.1 84.2,39.2 77.1,39.2 "/>
<path class="st2" d="M86.6,32.8c0,0.8,0.1,1.5,0.4,2.2c0.3,0.7,0.6,1.3,1.1,1.8c0.5,0.5,1,0.9,1.7,1.2c0.7,0.3,1.4,0.4,2.2,0.4
	c0.8,0,1.6-0.1,2.2-0.4c0.7-0.3,1.2-0.7,1.7-1.2c0.5-0.5,0.8-1.1,1.1-1.8c0.3-0.7,0.4-1.4,0.4-2.2c0-0.8-0.1-1.5-0.4-2.2
	c-0.3-0.7-0.6-1.3-1.1-1.8c-0.5-0.5-1-0.9-1.7-1.2c-0.7-0.3-1.4-0.4-2.2-0.4c-0.8,0-1.6,0.1-2.2,0.4c-0.7,0.3-1.2,0.7-1.7,1.2
	c-0.5,0.5-0.8,1.1-1.1,1.8C86.8,31.3,86.6,32,86.6,32.8 M85.4,32.8c0-1,0.2-1.9,0.5-2.7s0.8-1.5,1.4-2.1c0.6-0.6,1.3-1.1,2.1-1.4
	c0.8-0.3,1.7-0.5,2.7-0.5c1,0,1.9,0.2,2.7,0.5c0.8,0.3,1.5,0.8,2.1,1.4c0.6,0.6,1,1.3,1.3,2.1s0.5,1.7,0.5,2.7c0,1-0.2,1.9-0.5,2.7
	c-0.3,0.8-0.8,1.5-1.3,2.1c-0.6,0.6-1.3,1.1-2.1,1.4c-0.8,0.3-1.7,0.5-2.7,0.5c-1,0-1.9-0.2-2.7-0.5c-0.8-0.3-1.5-0.8-2.1-1.4
	c-0.6-0.6-1-1.3-1.4-2.1C85.6,34.7,85.4,33.8,85.4,32.8"/>
<path class="st2" d="M101.8,36.8c0.3,0.5,0.7,0.9,1.2,1.2c0.5,0.3,1.1,0.4,1.7,0.4c0.4,0,0.8-0.1,1.1-0.2c0.3-0.1,0.7-0.3,0.9-0.5
	c0.3-0.2,0.5-0.5,0.6-0.8c0.2-0.3,0.2-0.7,0.2-1c0-0.4-0.1-0.8-0.3-1.1c-0.2-0.3-0.4-0.5-0.7-0.7c-0.3-0.2-0.7-0.3-1.1-0.5
	c-0.4-0.1-0.8-0.3-1.2-0.4c-0.4-0.1-0.8-0.3-1.2-0.5c-0.4-0.2-0.7-0.4-1.1-0.7c-0.3-0.3-0.6-0.6-0.7-1c-0.2-0.4-0.3-0.9-0.3-1.5
	c0-0.6,0.1-1.1,0.3-1.5c0.2-0.4,0.5-0.8,0.9-1.1c0.4-0.3,0.8-0.5,1.3-0.7c0.5-0.2,1-0.2,1.5-0.2c0.7,0,1.3,0.1,1.9,0.4
	c0.6,0.2,1.1,0.7,1.5,1.2l-1,0.7c-0.3-0.4-0.7-0.7-1.1-0.9c-0.4-0.2-0.9-0.3-1.4-0.3c-0.4,0-0.7,0.1-1.1,0.2
	c-0.3,0.1-0.7,0.3-0.9,0.4c-0.3,0.2-0.5,0.4-0.6,0.7c-0.2,0.3-0.2,0.7-0.2,1.1c0,0.6,0.2,1.1,0.5,1.5c0.3,0.3,0.7,0.6,1.2,0.8
	c0.5,0.2,1,0.4,1.6,0.5c0.6,0.1,1.1,0.4,1.6,0.6c0.5,0.3,0.9,0.6,1.2,1.1c0.3,0.5,0.5,1.1,0.5,1.9c0,0.6-0.1,1.1-0.3,1.5
	c-0.2,0.4-0.5,0.8-0.9,1.1c-0.4,0.3-0.8,0.5-1.3,0.7c-0.5,0.2-1,0.2-1.5,0.2c-0.8,0-1.6-0.1-2.3-0.4c-0.7-0.3-1.3-0.8-1.8-1.5
	L101.8,36.8z"/>
<polygon class="st2" points="114.5,27.5 110.2,27.5 110.2,26.4 120.1,26.4 120.1,27.5 115.7,27.5 115.7,39.2 114.5,39.2 "/>
<polygon class="st2" points="122.3,26.4 130.1,26.4 130.1,27.5 123.5,27.5 123.5,32.1 129.6,32.1 129.6,33.1 123.5,33.1 123.5,38.1 
	130.4,38.1 130.4,39.2 122.3,39.2 "/>
<path class="st2" d="M134.3,32.1h2.5c0.6,0,1.1-0.1,1.5-0.2c0.4-0.2,0.7-0.3,0.9-0.6c0.2-0.2,0.4-0.5,0.4-0.7
	c0.1-0.3,0.1-0.5,0.1-0.7c0-0.2,0-0.5-0.1-0.7c-0.1-0.3-0.2-0.5-0.4-0.7c-0.2-0.2-0.5-0.4-0.9-0.6c-0.4-0.2-0.9-0.2-1.5-0.2h-2.5
	V32.1z M133.2,26.4h3.3c0.2,0,0.4,0,0.7,0c0.3,0,0.6,0,0.9,0.1c0.3,0.1,0.7,0.2,1,0.3c0.3,0.1,0.7,0.3,0.9,0.6
	c0.3,0.3,0.5,0.6,0.7,1c0.2,0.4,0.3,0.9,0.3,1.4c0,0.6-0.1,1.1-0.3,1.5c-0.2,0.4-0.5,0.7-0.8,1c-0.3,0.2-0.7,0.4-1.1,0.5
	c-0.4,0.1-0.7,0.2-1.1,0.3l3.7,6.1h-1.3l-3.6-6h-2.2v6h-1.2V26.4z"/>
<path class="st2" d="M150,38.1h2.4c0.8,0,1.6-0.1,2.4-0.3c0.7-0.2,1.4-0.5,1.9-1c0.5-0.4,1-1,1.3-1.6c0.3-0.7,0.5-1.5,0.5-2.4
	c0-0.9-0.2-1.7-0.5-2.4c-0.3-0.7-0.7-1.2-1.3-1.6c-0.5-0.4-1.2-0.8-1.9-1c-0.7-0.2-1.5-0.3-2.4-0.3H150V38.1z M148.8,26.4h3.9
	c1.1,0,2,0.1,2.8,0.4c0.8,0.3,1.4,0.6,1.9,1c0.5,0.4,0.9,0.9,1.2,1.4c0.3,0.5,0.5,1,0.6,1.5c0.1,0.5,0.2,0.9,0.3,1.3
	c0,0.4,0.1,0.6,0.1,0.8c0,0.2,0,0.4-0.1,0.8c0,0.4-0.1,0.8-0.3,1.3c-0.1,0.5-0.4,1-0.6,1.5c-0.3,0.5-0.7,1-1.2,1.4
	c-0.5,0.4-1.1,0.8-1.9,1c-0.8,0.3-1.7,0.4-2.8,0.4h-3.9V26.4z"/>
<rect x="162.5" y="26.4" class="st2" width="1.2" height="12.7"/>
<path class="st2" d="M167.7,36.8c0.3,0.5,0.7,0.9,1.2,1.2c0.5,0.3,1.1,0.4,1.7,0.4c0.4,0,0.8-0.1,1.1-0.2c0.3-0.1,0.7-0.3,0.9-0.5
	c0.3-0.2,0.5-0.5,0.6-0.8c0.2-0.3,0.2-0.7,0.2-1c0-0.4-0.1-0.8-0.3-1.1c-0.2-0.3-0.4-0.5-0.7-0.7c-0.3-0.2-0.7-0.3-1.1-0.5
	c-0.4-0.1-0.8-0.3-1.2-0.4c-0.4-0.1-0.8-0.3-1.2-0.5c-0.4-0.2-0.7-0.4-1.1-0.7c-0.3-0.3-0.6-0.6-0.7-1c-0.2-0.4-0.3-0.9-0.3-1.5
	c0-0.6,0.1-1.1,0.3-1.5c0.2-0.4,0.5-0.8,0.9-1.1c0.4-0.3,0.8-0.5,1.3-0.7c0.5-0.2,1-0.2,1.5-0.2c0.7,0,1.3,0.1,1.9,0.4
	c0.6,0.2,1.1,0.7,1.5,1.2l-1,0.7c-0.3-0.4-0.7-0.7-1.1-0.9c-0.4-0.2-0.9-0.3-1.4-0.3c-0.4,0-0.7,0.1-1.1,0.2
	c-0.3,0.1-0.7,0.3-0.9,0.4c-0.3,0.2-0.5,0.4-0.6,0.7c-0.2,0.3-0.2,0.7-0.2,1.1c0,0.6,0.2,1.1,0.5,1.5c0.3,0.3,0.7,0.6,1.2,0.8
	c0.5,0.2,1,0.4,1.6,0.5c0.6,0.1,1.1,0.4,1.6,0.6c0.5,0.3,0.9,0.6,1.2,1.1c0.3,0.5,0.5,1.1,0.5,1.9c0,0.6-0.1,1.1-0.3,1.5
	c-0.2,0.4-0.5,0.8-0.9,1.1c-0.4,0.3-0.8,0.5-1.3,0.7c-0.5,0.2-1,0.2-1.5,0.2c-0.8,0-1.6-0.1-2.3-0.4c-0.7-0.3-1.3-0.8-1.8-1.5
	L167.7,36.8z"/>
<polygon class="st2" points="177.6,26.4 185.4,26.4 185.4,27.5 178.8,27.5 178.8,32.1 185,32.1 185,33.1 178.8,33.1 178.8,38.1 
	185.7,38.1 185.7,39.2 177.6,39.2 "/>
<polygon class="st2" points="188.5,26.4 190,26.4 197.7,37.6 197.8,37.6 197.8,26.4 199,26.4 199,39.2 197.4,39.2 189.7,28 
	189.6,28 189.6,39.2 188.5,39.2 "/>
<polygon class="st2" points="205.5,27.5 201.1,27.5 201.1,26.4 211,26.4 211,27.5 206.7,27.5 206.7,39.2 205.5,39.2 "/>
<rect x="213.2" y="26.4" class="st2" width="1.2" height="12.7"/>
<path class="st2" d="M218.4,36.8c0.3,0.5,0.7,0.9,1.2,1.2c0.5,0.3,1.1,0.4,1.7,0.4c0.4,0,0.8-0.1,1.1-0.2c0.3-0.1,0.7-0.3,0.9-0.5
	c0.3-0.2,0.5-0.5,0.6-0.8c0.2-0.3,0.2-0.7,0.2-1c0-0.4-0.1-0.8-0.3-1.1c-0.2-0.3-0.4-0.5-0.7-0.7c-0.3-0.2-0.7-0.3-1.1-0.5
	c-0.4-0.1-0.8-0.3-1.2-0.4c-0.4-0.1-0.8-0.3-1.2-0.5c-0.4-0.2-0.7-0.4-1.1-0.7c-0.3-0.3-0.6-0.6-0.7-1c-0.2-0.4-0.3-0.9-0.3-1.5
	c0-0.6,0.1-1.1,0.3-1.5c0.2-0.4,0.5-0.8,0.9-1.1c0.4-0.3,0.8-0.5,1.3-0.7c0.5-0.2,1-0.2,1.5-0.2c0.7,0,1.3,0.1,1.9,0.4
	c0.6,0.2,1.1,0.7,1.5,1.2l-1,0.7c-0.3-0.4-0.7-0.7-1.1-0.9c-0.4-0.2-0.9-0.3-1.4-0.3c-0.4,0-0.7,0.1-1.1,0.2
	c-0.3,0.1-0.7,0.3-0.9,0.4c-0.3,0.2-0.5,0.4-0.6,0.7c-0.2,0.3-0.2,0.7-0.2,1.1c0,0.6,0.2,1.1,0.5,1.5c0.3,0.3,0.7,0.6,1.2,0.8
	c0.5,0.2,1,0.4,1.6,0.5c0.6,0.1,1.1,0.4,1.6,0.6c0.5,0.3,0.9,0.6,1.2,1.1c0.3,0.5,0.5,1.1,0.5,1.9c0,0.6-0.1,1.1-0.3,1.5
	c-0.2,0.4-0.5,0.8-0.9,1.1c-0.4,0.3-0.8,0.5-1.3,0.7c-0.5,0.2-1,0.2-1.5,0.2c-0.8,0-1.6-0.1-2.3-0.4c-0.7-0.3-1.3-0.8-1.8-1.5
	L218.4,36.8z"/>
<g>
	<path class="st2" d="M77.4,20c-0.8,0.4-1.7,0.7-2.5,0.9c-0.9,0.2-1.8,0.3-2.7,0.3c-1,0-1.9-0.2-2.7-0.5c-0.8-0.3-1.5-0.7-2.1-1.3
		c-0.6-0.6-1.1-1.3-1.4-2.1c-0.3-0.8-0.5-1.7-0.5-2.7c0-1,0.2-1.9,0.5-2.7c0.3-0.8,0.8-1.5,1.4-2.1c0.6-0.6,1.3-1,2.1-1.3
		C70.3,8.2,71.2,8,72.2,8c1,0,1.9,0.1,2.8,0.4c0.8,0.2,1.6,0.7,2.2,1.2l-1.9,2.1c-0.4-0.4-0.8-0.7-1.3-0.9c-0.5-0.2-1.1-0.3-1.8-0.3
		c-0.6,0-1.1,0.1-1.6,0.3c-0.5,0.2-0.9,0.5-1.2,0.8c-0.3,0.4-0.6,0.8-0.8,1.3c-0.2,0.5-0.3,1-0.3,1.6c0,0.6,0.1,1.1,0.3,1.6
		c0.2,0.5,0.4,0.9,0.8,1.3c0.3,0.4,0.8,0.6,1.2,0.8c0.5,0.2,1,0.3,1.6,0.3c0.6,0,1.1-0.1,1.6-0.2c0.4-0.1,0.8-0.3,1-0.4v-2h-2.2
		v-2.5h4.9V20z"/>
	<path class="st2" d="M83,15.5l-4.7-7.2h3.4l2.7,4.7l2.8-4.7h3.3l-4.7,7.2v5.3H83V15.5z"/>
	<path class="st2" d="M91.8,8.4H96l2.9,8.2h0l2.9-8.2h4.2v12.5h-2.8v-9.6h0l-3.3,9.6h-2.1l-3.2-9.6h0v9.6h-2.8V8.4z"/>
	<path class="st2" d="M108.8,8.4h3.7l5.3,8.7h0V8.4h2.8v12.5h-3.6l-5.5-8.9h0v8.9h-2.8V8.4z"/>
	<path class="st2" d="M127.7,8.4h2.3l5.4,12.5h-3.1l-1.1-2.7h-4.9l-1,2.7h-3L127.7,8.4z M128.7,12l-1.5,3.9h3.1L128.7,12z"/>
	<path class="st2" d="M143.4,11.4c-0.2-0.3-0.5-0.5-0.9-0.6c-0.4-0.1-0.7-0.2-1.1-0.2c-0.2,0-0.4,0-0.6,0.1c-0.2,0-0.4,0.1-0.6,0.2
		c-0.2,0.1-0.3,0.2-0.5,0.4c-0.1,0.2-0.2,0.4-0.2,0.6c0,0.4,0.1,0.7,0.4,0.9c0.3,0.2,0.6,0.4,1.1,0.5c0.4,0.1,0.9,0.3,1.4,0.4
		c0.5,0.1,1,0.3,1.4,0.6c0.4,0.3,0.8,0.6,1.1,1s0.4,1,0.4,1.7c0,0.7-0.1,1.3-0.4,1.8c-0.3,0.5-0.6,0.9-1.1,1.3
		c-0.4,0.3-1,0.6-1.5,0.8c-0.6,0.2-1.2,0.2-1.8,0.2c-0.8,0-1.6-0.1-2.3-0.4c-0.7-0.2-1.3-0.6-1.9-1.2l2-2.2c0.3,0.4,0.6,0.7,1.1,0.9
		c0.4,0.2,0.9,0.3,1.3,0.3c0.2,0,0.5,0,0.7-0.1c0.2-0.1,0.4-0.1,0.6-0.2c0.2-0.1,0.3-0.2,0.4-0.4c0.1-0.2,0.2-0.4,0.2-0.6
		c0-0.4-0.1-0.7-0.4-0.9c-0.3-0.2-0.7-0.4-1.1-0.6c-0.4-0.2-0.9-0.3-1.4-0.5c-0.5-0.2-1-0.4-1.4-0.6c-0.4-0.3-0.8-0.6-1.1-1
		c-0.3-0.4-0.4-1-0.4-1.7c0-0.7,0.1-1.3,0.4-1.8c0.3-0.5,0.6-0.9,1.1-1.3c0.4-0.3,1-0.6,1.5-0.8c0.6-0.2,1.2-0.3,1.8-0.3
		c0.7,0,1.4,0.1,2,0.3c0.7,0.2,1.3,0.5,1.8,1L143.4,11.4z"/>
	<path class="st2" d="M147.6,8.4h2.8v12.5h-2.8V8.4z"/>
	<path class="st2" d="M163.8,16.1c0,0.7-0.1,1.4-0.3,2c-0.2,0.6-0.6,1.2-1,1.6c-0.4,0.5-1,0.8-1.7,1.1s-1.4,0.4-2.3,0.4
		c-0.9,0-1.6-0.1-2.3-0.4c-0.7-0.3-1.2-0.6-1.7-1.1c-0.4-0.5-0.8-1-1-1.6c-0.2-0.6-0.3-1.3-0.3-2V8.4h2.8v7.6c0,0.4,0.1,0.7,0.2,1.1
		c0.1,0.3,0.3,0.6,0.5,0.9c0.2,0.2,0.5,0.4,0.8,0.6c0.3,0.1,0.7,0.2,1,0.2c0.4,0,0.7-0.1,1-0.2c0.3-0.1,0.6-0.3,0.8-0.6
		c0.2-0.2,0.4-0.5,0.5-0.9c0.1-0.3,0.2-0.7,0.2-1.1V8.4h2.8V16.1z"/>
	<path class="st2" d="M166.6,8.4h4.2l2.9,8.2h0l2.9-8.2h4.2v12.5H178v-9.6h0l-3.3,9.6h-2.1l-3.2-9.6h0v9.6h-2.8V8.4z"/>
	<path class="st2" d="M196.4,17.9l2.8,3h-3.4l-1-1.2c-0.5,0.5-1.1,0.9-1.7,1.1c-0.6,0.2-1.3,0.4-2,0.4c-0.6,0-1.1-0.1-1.6-0.2
		c-0.5-0.2-1-0.4-1.4-0.7c-0.4-0.3-0.8-0.7-1-1.2c-0.2-0.5-0.4-1-0.4-1.6c0-0.4,0.1-0.8,0.2-1.1c0.1-0.4,0.3-0.7,0.6-1
		c0.2-0.3,0.5-0.6,0.8-0.8c0.3-0.2,0.7-0.4,1-0.5c-0.2-0.2-0.4-0.4-0.6-0.6c-0.2-0.2-0.3-0.4-0.4-0.6c-0.1-0.2-0.2-0.5-0.3-0.7
		c-0.1-0.2-0.1-0.5-0.1-0.8c0-0.6,0.1-1,0.3-1.4s0.5-0.7,0.9-1c0.4-0.3,0.8-0.4,1.3-0.6c0.5-0.1,1-0.2,1.4-0.2
		c0.5,0,0.9,0.1,1.4,0.2c0.4,0.1,0.8,0.3,1.2,0.6c0.3,0.3,0.6,0.6,0.8,1c0.2,0.4,0.3,0.8,0.3,1.4c0,0.4-0.1,0.7-0.2,1
		c-0.1,0.3-0.3,0.6-0.5,0.9c-0.2,0.3-0.5,0.5-0.7,0.7c-0.3,0.2-0.6,0.4-0.9,0.6l1.6,1.7l1.2-1.7h3.1L196.4,17.9z M190.9,15.5
		c-0.2,0.1-0.4,0.2-0.5,0.3c-0.2,0.1-0.3,0.2-0.5,0.4c-0.1,0.1-0.2,0.3-0.3,0.5c-0.1,0.2-0.1,0.4-0.1,0.6s0,0.4,0.1,0.6
		c0.1,0.2,0.2,0.3,0.4,0.5c0.2,0.1,0.3,0.2,0.5,0.3c0.2,0.1,0.4,0.1,0.6,0.1c0.4,0,0.8-0.1,1.1-0.3c0.3-0.2,0.6-0.4,0.9-0.7
		L190.9,15.5z M191.7,10.2c-0.3,0-0.6,0.1-0.9,0.3c-0.2,0.2-0.4,0.5-0.4,0.8c0,0.2,0,0.3,0.1,0.5c0.1,0.1,0.2,0.3,0.3,0.4
		c0.1,0.1,0.2,0.3,0.3,0.4c0.1,0.1,0.2,0.2,0.3,0.3c0.1-0.1,0.3-0.2,0.5-0.3c0.2-0.1,0.3-0.2,0.5-0.4c0.1-0.1,0.3-0.3,0.4-0.4
		c0.1-0.2,0.1-0.3,0.1-0.5c0-0.4-0.1-0.6-0.4-0.8C192.4,10.3,192.1,10.2,191.7,10.2z"/>
	<path class="st2" d="M204,8.4h2.8v12.5H204V8.4z"/>
	<path class="st2" d="M209.6,8.4h3.7l5.3,8.7h0V8.4h2.8v12.5h-3.6l-5.5-8.9h0v8.9h-2.8V8.4z"/>
	<path class="st2" d="M226.6,10.8h-3.6V8.4h9.9v2.4h-3.6v10.1h-2.8V10.8z"/>
	<path class="st2" d="M234.6,8.4h8.5v2.5h-5.7v2.3h5.4v2.5h-5.4v2.5h6.1v2.5h-8.8V8.4z"/>
	<path class="st2" d="M246,8.4h4.8c0.6,0,1.2,0.1,1.8,0.2c0.6,0.1,1.1,0.3,1.5,0.6c0.4,0.3,0.8,0.7,1,1.2c0.3,0.5,0.4,1.1,0.4,1.8
		c0,0.9-0.2,1.6-0.7,2.3c-0.5,0.6-1.1,1-2,1.2l3.2,5.3h-3.3l-2.6-5h-1.4v5H246V8.4z M248.7,13.5h1.6c0.2,0,0.5,0,0.8,0
		c0.3,0,0.5-0.1,0.8-0.2c0.2-0.1,0.4-0.2,0.6-0.4c0.1-0.2,0.2-0.5,0.2-0.8c0-0.3-0.1-0.6-0.2-0.8c-0.1-0.2-0.3-0.3-0.5-0.4
		c-0.2-0.1-0.4-0.2-0.7-0.2c-0.3,0-0.5-0.1-0.8-0.1h-1.8V13.5z"/>
	<path class="st2" d="M257.8,8.4h3.7l5.3,8.7h0V8.4h2.8v12.5h-3.6l-5.5-8.9h0v8.9h-2.8V8.4z"/>
	<path class="st2" d="M276.6,8.4h2.3l5.4,12.5h-3.1l-1.1-2.7h-4.9l-1,2.7h-3L276.6,8.4z M277.7,12l-1.5,3.9h3.1L277.7,12z"/>
	<path class="st2" d="M287.1,10.8h-3.6V8.4h9.9v2.4h-3.6v10.1h-2.8V10.8z"/>
</g>
</svg>
